<svg xmlns="http://www.w3.org/2000/svg" viewBox="0 0 64 64" fill="none">
  <rect width="64" height="64" rx="12" fill="#232F3E"/>
  <path d="M19.2 33.8c-.3.4-.8.5-1.2.3-.9-.6-2.5-1.4-4.8-1.4-3.5 0-5.7 1.8-5.7 4.5 0 2.4 1.8 3.9 4.8 3.9 2.5 0 4.1-.9 5.3-1.8.4-.3.9-.2 1.2.2l1.6 2c.3.4.2.9-.2 1.3-1.8 1.4-4.2 2.6-7.9 2.6-5.8 0-9.6-3.8-9.6-8.2 0-4.9 4.3-8.6 10.4-8.6 3.6 0 6.1 1.2 7.7 2.4.4.3.4.8.2 1.2l-1.9 1.6z" fill="#FF9900" opacity="0"/>
  <text x="50%" y="42%" text-anchor="middle" dominant-baseline="central" font-family="Arial, Helvetica, sans-serif" font-weight="900" font-size="22" fill="#FFFFFF" letter-spacing="1">AWS</text>
  <path d="M16 46c10 6.5 22 6.5 32 0" stroke="#FF9900" stroke-width="3" stroke-linecap="round"/>
  <path d="M46 43l3 4.5-5 1.5" fill="none" stroke="#FF9900" stroke-width="2.5" stroke-linecap="round" stroke-linejoin="round"/>
</svg>
